<mxfile host="app.diagrams.net" modified="2023-07-14T04:59:32.998Z" agent="Mozilla/5.0 (Windows NT 10.0; Win64; x64) AppleWebKit/537.36 (KHTML, like Gecko) Chrome/114.0.0.0 Safari/537.36" etag="u8WMXgn4sJK3fsRClR8S" version="21.6.2" type="github">
  <diagram name="Page-1" id="x1VNKSfAxqE1mz8umFYT">
    <mxGraphModel dx="1628" dy="1995" grid="1" gridSize="10" guides="1" tooltips="1" connect="1" arrows="1" fold="1" page="1" pageScale="1" pageWidth="850" pageHeight="1100" math="0" shadow="0">
      <root>
        <mxCell id="0" />
        <mxCell id="1" parent="0" />
        <mxCell id="lSlj_u3Z0mNgPemXa-LI-1" value="Vending Machine" style="rounded=0;whiteSpace=wrap;html=1;" vertex="1" parent="1">
          <mxGeometry x="360" y="250" width="120" height="60" as="geometry" />
        </mxCell>
        <mxCell id="lSlj_u3Z0mNgPemXa-LI-11" value="" style="endArrow=none;html=1;rounded=0;entryX=0.5;entryY=0;entryDx=0;entryDy=0;exitX=0.5;exitY=1;exitDx=0;exitDy=0;" edge="1" parent="1" target="lSlj_u3Z0mNgPemXa-LI-1">
          <mxGeometry width="50" height="50" relative="1" as="geometry">
            <mxPoint x="420" y="200" as="sourcePoint" />
            <mxPoint x="451" y="232" as="targetPoint" />
          </mxGeometry>
        </mxCell>
        <mxCell id="lSlj_u3Z0mNgPemXa-LI-12" value="" style="endArrow=none;html=1;rounded=0;entryX=0.008;entryY=0.648;entryDx=0;entryDy=0;entryPerimeter=0;exitX=1;exitY=0.5;exitDx=0;exitDy=0;" edge="1" parent="1">
          <mxGeometry width="50" height="50" relative="1" as="geometry">
            <mxPoint x="479" y="274.01" as="sourcePoint" />
            <mxPoint x="570" y="276.01" as="targetPoint" />
          </mxGeometry>
        </mxCell>
        <mxCell id="lSlj_u3Z0mNgPemXa-LI-13" value="Text" style="edgeLabel;html=1;align=center;verticalAlign=middle;resizable=0;points=[];" vertex="1" connectable="0" parent="lSlj_u3Z0mNgPemXa-LI-12">
          <mxGeometry x="-0.0115" y="1" relative="1" as="geometry">
            <mxPoint as="offset" />
          </mxGeometry>
        </mxCell>
        <mxCell id="lSlj_u3Z0mNgPemXa-LI-14" value="" style="endArrow=none;html=1;rounded=0;entryX=0.008;entryY=0.648;entryDx=0;entryDy=0;entryPerimeter=0;exitX=1;exitY=0.5;exitDx=0;exitDy=0;" edge="1" parent="1">
          <mxGeometry width="50" height="50" relative="1" as="geometry">
            <mxPoint x="479" y="284.01" as="sourcePoint" />
            <mxPoint x="570" y="286.01" as="targetPoint" />
          </mxGeometry>
        </mxCell>
        <mxCell id="lSlj_u3Z0mNgPemXa-LI-15" value="" style="rounded=0;whiteSpace=wrap;html=1;" vertex="1" parent="1">
          <mxGeometry x="360" y="150" width="120" height="60" as="geometry" />
        </mxCell>
        <mxCell id="lSlj_u3Z0mNgPemXa-LI-16" value="Hardware" style="rounded=0;whiteSpace=wrap;html=1;" vertex="1" parent="1">
          <mxGeometry x="370" y="160" width="100" height="40" as="geometry" />
        </mxCell>
        <mxCell id="lSlj_u3Z0mNgPemXa-LI-17" value="" style="rounded=0;whiteSpace=wrap;html=1;" vertex="1" parent="1">
          <mxGeometry x="560" y="250" width="120" height="60" as="geometry" />
        </mxCell>
        <mxCell id="lSlj_u3Z0mNgPemXa-LI-18" value="Worker&#39;s Involverd" style="rounded=0;whiteSpace=wrap;html=1;" vertex="1" parent="1">
          <mxGeometry x="570" y="260" width="100" height="40" as="geometry" />
        </mxCell>
        <mxCell id="lSlj_u3Z0mNgPemXa-LI-20" value="Scrum Master" style="ellipse;whiteSpace=wrap;html=1;" vertex="1" parent="1">
          <mxGeometry x="560" y="350" width="120" height="80" as="geometry" />
        </mxCell>
        <mxCell id="lSlj_u3Z0mNgPemXa-LI-22" value="" style="ellipse;whiteSpace=wrap;html=1;" vertex="1" parent="1">
          <mxGeometry x="510" y="470" width="120" height="80" as="geometry" />
        </mxCell>
        <mxCell id="lSlj_u3Z0mNgPemXa-LI-23" value="" style="endArrow=none;html=1;rounded=0;entryX=0.5;entryY=0;entryDx=0;entryDy=0;exitX=0.5;exitY=1;exitDx=0;exitDy=0;" edge="1" parent="1" source="lSlj_u3Z0mNgPemXa-LI-17" target="lSlj_u3Z0mNgPemXa-LI-20">
          <mxGeometry width="50" height="50" relative="1" as="geometry">
            <mxPoint x="560" y="330" as="sourcePoint" />
            <mxPoint x="651" y="332" as="targetPoint" />
          </mxGeometry>
        </mxCell>
        <mxCell id="lSlj_u3Z0mNgPemXa-LI-24" value="" style="endArrow=none;html=1;rounded=0;entryX=0.5;entryY=0;entryDx=0;entryDy=0;exitX=0;exitY=1;exitDx=0;exitDy=0;" edge="1" parent="1" source="lSlj_u3Z0mNgPemXa-LI-20" target="lSlj_u3Z0mNgPemXa-LI-22">
          <mxGeometry width="50" height="50" relative="1" as="geometry">
            <mxPoint x="640" y="340" as="sourcePoint" />
            <mxPoint x="731" y="342" as="targetPoint" />
          </mxGeometry>
        </mxCell>
        <mxCell id="lSlj_u3Z0mNgPemXa-LI-26" value="Mechatronics Engineer" style="ellipse;whiteSpace=wrap;html=1;" vertex="1" parent="1">
          <mxGeometry x="517.5" y="476.25" width="105" height="67.5" as="geometry" />
        </mxCell>
        <mxCell id="lSlj_u3Z0mNgPemXa-LI-29" value="Programming" style="ellipse;whiteSpace=wrap;html=1;" vertex="1" parent="1">
          <mxGeometry x="590" y="40" width="120" height="80" as="geometry" />
        </mxCell>
        <mxCell id="lSlj_u3Z0mNgPemXa-LI-30" value="" style="endArrow=none;html=1;rounded=0;entryX=0.008;entryY=0.648;entryDx=0;entryDy=0;entryPerimeter=0;exitX=1;exitY=0.5;exitDx=0;exitDy=0;" edge="1" parent="1" source="lSlj_u3Z0mNgPemXa-LI-35" target="lSlj_u3Z0mNgPemXa-LI-29">
          <mxGeometry width="50" height="50" relative="1" as="geometry">
            <mxPoint x="485" y="80" as="sourcePoint" />
            <mxPoint x="455" y="170" as="targetPoint" />
          </mxGeometry>
        </mxCell>
        <mxCell id="lSlj_u3Z0mNgPemXa-LI-31" value="Wires Connectivity" style="ellipse;whiteSpace=wrap;html=1;" vertex="1" parent="1">
          <mxGeometry x="365" y="-70" width="120" height="80" as="geometry" />
        </mxCell>
        <mxCell id="lSlj_u3Z0mNgPemXa-LI-32" value="" style="endArrow=none;html=1;rounded=0;entryX=0.5;entryY=1;entryDx=0;entryDy=0;exitX=0.5;exitY=0;exitDx=0;exitDy=0;" edge="1" parent="1" target="lSlj_u3Z0mNgPemXa-LI-31">
          <mxGeometry width="50" height="50" relative="1" as="geometry">
            <mxPoint x="425" y="50" as="sourcePoint" />
            <mxPoint x="470.5" y="22" as="targetPoint" />
          </mxGeometry>
        </mxCell>
        <mxCell id="lSlj_u3Z0mNgPemXa-LI-33" value="" style="endArrow=none;html=1;rounded=0;entryX=0.008;entryY=0.648;entryDx=0;entryDy=0;entryPerimeter=0;exitX=1;exitY=0.5;exitDx=0;exitDy=0;" edge="1" parent="1">
          <mxGeometry width="50" height="50" relative="1" as="geometry">
            <mxPoint x="274" y="79" as="sourcePoint" />
            <mxPoint x="365" y="81" as="targetPoint" />
          </mxGeometry>
        </mxCell>
        <mxCell id="lSlj_u3Z0mNgPemXa-LI-34" value="PIN &amp;amp; Module Configuration" style="ellipse;whiteSpace=wrap;html=1;" vertex="1" parent="1">
          <mxGeometry x="155" y="40" width="120" height="80" as="geometry" />
        </mxCell>
        <mxCell id="lSlj_u3Z0mNgPemXa-LI-35" value="" style="ellipse;whiteSpace=wrap;html=1;" vertex="1" parent="1">
          <mxGeometry x="360" y="50" width="120" height="80" as="geometry" />
        </mxCell>
        <mxCell id="lSlj_u3Z0mNgPemXa-LI-36" value="Arduino" style="ellipse;whiteSpace=wrap;html=1;" vertex="1" parent="1">
          <mxGeometry x="367.5" y="56.25" width="105" height="67.5" as="geometry" />
        </mxCell>
        <mxCell id="lSlj_u3Z0mNgPemXa-LI-37" value="" style="endArrow=none;html=1;rounded=0;entryX=0.5;entryY=0;entryDx=0;entryDy=0;exitX=0.5;exitY=1;exitDx=0;exitDy=0;" edge="1" parent="1" source="lSlj_u3Z0mNgPemXa-LI-35" target="lSlj_u3Z0mNgPemXa-LI-15">
          <mxGeometry width="50" height="50" relative="1" as="geometry">
            <mxPoint x="415" y="140" as="sourcePoint" />
            <mxPoint x="512.5" y="142" as="targetPoint" />
          </mxGeometry>
        </mxCell>
        <mxCell id="lSlj_u3Z0mNgPemXa-LI-39" value="Carbon Fiber &amp;amp; Steel" style="ellipse;whiteSpace=wrap;html=1;" vertex="1" parent="1">
          <mxGeometry x="140" y="140" width="120" height="80" as="geometry" />
        </mxCell>
        <mxCell id="lSlj_u3Z0mNgPemXa-LI-40" value="" style="endArrow=none;html=1;rounded=0;entryX=0.008;entryY=0.648;entryDx=0;entryDy=0;entryPerimeter=0;" edge="1" parent="1">
          <mxGeometry width="50" height="50" relative="1" as="geometry">
            <mxPoint x="260" y="181" as="sourcePoint" />
            <mxPoint x="360" y="181" as="targetPoint" />
          </mxGeometry>
        </mxCell>
        <mxCell id="lSlj_u3Z0mNgPemXa-LI-41" value="" style="endArrow=none;html=1;rounded=0;entryX=0.008;entryY=0.648;entryDx=0;entryDy=0;entryPerimeter=0;exitX=1;exitY=0.5;exitDx=0;exitDy=0;" edge="1" parent="1">
          <mxGeometry width="50" height="50" relative="1" as="geometry">
            <mxPoint x="479" y="179" as="sourcePoint" />
            <mxPoint x="590" y="181" as="targetPoint" />
          </mxGeometry>
        </mxCell>
        <mxCell id="lSlj_u3Z0mNgPemXa-LI-42" value="Refrigerant" style="ellipse;whiteSpace=wrap;html=1;" vertex="1" parent="1">
          <mxGeometry x="590" y="140" width="120" height="80" as="geometry" />
        </mxCell>
        <mxCell id="lSlj_u3Z0mNgPemXa-LI-43" value="Physical Model Designer" style="ellipse;whiteSpace=wrap;html=1;" vertex="1" parent="1">
          <mxGeometry x="425" y="580" width="100" height="70" as="geometry" />
        </mxCell>
        <mxCell id="lSlj_u3Z0mNgPemXa-LI-44" value="Software Programmer" style="ellipse;whiteSpace=wrap;html=1;" vertex="1" parent="1">
          <mxGeometry x="680" y="470" width="120" height="80" as="geometry" />
        </mxCell>
        <mxCell id="lSlj_u3Z0mNgPemXa-LI-45" value="" style="endArrow=none;html=1;rounded=0;entryX=0;entryY=0;entryDx=0;entryDy=0;exitX=1;exitY=1;exitDx=0;exitDy=0;" edge="1" parent="1" source="lSlj_u3Z0mNgPemXa-LI-20" target="lSlj_u3Z0mNgPemXa-LI-44">
          <mxGeometry width="50" height="50" relative="1" as="geometry">
            <mxPoint x="690" y="297" as="sourcePoint" />
            <mxPoint x="730" y="300" as="targetPoint" />
          </mxGeometry>
        </mxCell>
        <mxCell id="lSlj_u3Z0mNgPemXa-LI-46" value="" style="endArrow=none;html=1;rounded=0;entryX=0.5;entryY=0;entryDx=0;entryDy=0;exitX=0;exitY=1;exitDx=0;exitDy=0;" edge="1" parent="1" source="lSlj_u3Z0mNgPemXa-LI-22" target="lSlj_u3Z0mNgPemXa-LI-43">
          <mxGeometry width="50" height="50" relative="1" as="geometry">
            <mxPoint x="444" y="518" as="sourcePoint" />
            <mxPoint x="480" y="582" as="targetPoint" />
          </mxGeometry>
        </mxCell>
        <mxCell id="lSlj_u3Z0mNgPemXa-LI-48" value="Information Gathering" style="ellipse;whiteSpace=wrap;html=1;" vertex="1" parent="1">
          <mxGeometry x="660" y="600" width="100" height="70" as="geometry" />
        </mxCell>
        <mxCell id="lSlj_u3Z0mNgPemXa-LI-49" value="Deployment Team" style="ellipse;whiteSpace=wrap;html=1;" vertex="1" parent="1">
          <mxGeometry x="800" y="600" width="100" height="70" as="geometry" />
        </mxCell>
        <mxCell id="lSlj_u3Z0mNgPemXa-LI-50" value="" style="endArrow=none;html=1;rounded=0;exitX=0.5;exitY=1;exitDx=0;exitDy=0;" edge="1" parent="1" source="lSlj_u3Z0mNgPemXa-LI-44" target="lSlj_u3Z0mNgPemXa-LI-48">
          <mxGeometry width="50" height="50" relative="1" as="geometry">
            <mxPoint x="672" y="428" as="sourcePoint" />
            <mxPoint x="708" y="492" as="targetPoint" />
          </mxGeometry>
        </mxCell>
        <mxCell id="lSlj_u3Z0mNgPemXa-LI-51" value="" style="endArrow=none;html=1;rounded=0;entryX=0.5;entryY=0;entryDx=0;entryDy=0;exitX=1;exitY=1;exitDx=0;exitDy=0;" edge="1" parent="1" source="lSlj_u3Z0mNgPemXa-LI-44" target="lSlj_u3Z0mNgPemXa-LI-49">
          <mxGeometry width="50" height="50" relative="1" as="geometry">
            <mxPoint x="682" y="438" as="sourcePoint" />
            <mxPoint x="718" y="502" as="targetPoint" />
          </mxGeometry>
        </mxCell>
        <mxCell id="lSlj_u3Z0mNgPemXa-LI-53" value="Works for" style="rhombus;whiteSpace=wrap;html=1;" vertex="1" parent="1">
          <mxGeometry x="370" y="350" width="80" height="80" as="geometry" />
        </mxCell>
        <mxCell id="lSlj_u3Z0mNgPemXa-LI-54" value="" style="endArrow=none;html=1;rounded=0;entryX=0.5;entryY=0;entryDx=0;entryDy=0;exitX=1;exitY=1;exitDx=0;exitDy=0;" edge="1" parent="1" target="lSlj_u3Z0mNgPemXa-LI-53">
          <mxGeometry width="50" height="50" relative="1" as="geometry">
            <mxPoint x="410" y="310" as="sourcePoint" />
            <mxPoint x="446" y="374" as="targetPoint" />
          </mxGeometry>
        </mxCell>
        <mxCell id="lSlj_u3Z0mNgPemXa-LI-55" value="" style="endArrow=none;html=1;rounded=0;exitX=1;exitY=1;exitDx=0;exitDy=0;" edge="1" parent="1">
          <mxGeometry width="50" height="50" relative="1" as="geometry">
            <mxPoint x="409.47" y="430" as="sourcePoint" />
            <mxPoint x="409.47" y="480" as="targetPoint" />
          </mxGeometry>
        </mxCell>
        <mxCell id="lSlj_u3Z0mNgPemXa-LI-56" value="User" style="ellipse;whiteSpace=wrap;html=1;" vertex="1" parent="1">
          <mxGeometry x="360" y="476.25" width="100" height="70" as="geometry" />
        </mxCell>
        <mxCell id="lSlj_u3Z0mNgPemXa-LI-57" value="Sales Person" style="ellipse;whiteSpace=wrap;html=1;" vertex="1" parent="1">
          <mxGeometry x="200" y="355" width="100" height="70" as="geometry" />
        </mxCell>
        <mxCell id="lSlj_u3Z0mNgPemXa-LI-58" value="" style="endArrow=none;html=1;rounded=0;exitX=0;exitY=0.5;exitDx=0;exitDy=0;entryX=1;entryY=0.5;entryDx=0;entryDy=0;" edge="1" parent="1" source="lSlj_u3Z0mNgPemXa-LI-53" target="lSlj_u3Z0mNgPemXa-LI-57">
          <mxGeometry width="50" height="50" relative="1" as="geometry">
            <mxPoint x="249.47000000000003" y="310" as="sourcePoint" />
            <mxPoint x="249.47000000000003" y="360" as="targetPoint" />
          </mxGeometry>
        </mxCell>
        <mxCell id="lSlj_u3Z0mNgPemXa-LI-59" value="Payment" style="ellipse;whiteSpace=wrap;html=1;" vertex="1" parent="1">
          <mxGeometry x="310" y="590" width="100" height="70" as="geometry" />
        </mxCell>
        <mxCell id="lSlj_u3Z0mNgPemXa-LI-60" value="Electrical Engineer" style="ellipse;whiteSpace=wrap;html=1;" vertex="1" parent="1">
          <mxGeometry x="540" y="580" width="100" height="70" as="geometry" />
        </mxCell>
        <mxCell id="lSlj_u3Z0mNgPemXa-LI-61" value="" style="endArrow=none;html=1;rounded=0;entryX=0.5;entryY=0;entryDx=0;entryDy=0;exitX=0.5;exitY=1;exitDx=0;exitDy=0;" edge="1" parent="1" source="lSlj_u3Z0mNgPemXa-LI-22" target="lSlj_u3Z0mNgPemXa-LI-60">
          <mxGeometry width="50" height="50" relative="1" as="geometry">
            <mxPoint x="538" y="548" as="sourcePoint" />
            <mxPoint x="485" y="590" as="targetPoint" />
          </mxGeometry>
        </mxCell>
        <mxCell id="lSlj_u3Z0mNgPemXa-LI-63" value="" style="endArrow=none;html=1;rounded=0;entryX=0.5;entryY=0;entryDx=0;entryDy=0;exitX=0.5;exitY=1;exitDx=0;exitDy=0;" edge="1" parent="1" source="lSlj_u3Z0mNgPemXa-LI-56" target="lSlj_u3Z0mNgPemXa-LI-59">
          <mxGeometry width="50" height="50" relative="1" as="geometry">
            <mxPoint x="548" y="558" as="sourcePoint" />
            <mxPoint x="495" y="600" as="targetPoint" />
          </mxGeometry>
        </mxCell>
        <mxCell id="lSlj_u3Z0mNgPemXa-LI-66" value="Food Collect" style="ellipse;whiteSpace=wrap;html=1;" vertex="1" parent="1">
          <mxGeometry x="155" y="580" width="100" height="70" as="geometry" />
        </mxCell>
        <mxCell id="lSlj_u3Z0mNgPemXa-LI-67" value="" style="endArrow=none;html=1;rounded=0;entryX=0.5;entryY=0;entryDx=0;entryDy=0;exitX=0;exitY=0.5;exitDx=0;exitDy=0;" edge="1" parent="1" source="lSlj_u3Z0mNgPemXa-LI-56" target="lSlj_u3Z0mNgPemXa-LI-66">
          <mxGeometry width="50" height="50" relative="1" as="geometry">
            <mxPoint x="260" y="523.75" as="sourcePoint" />
            <mxPoint x="210" y="543.75" as="targetPoint" />
          </mxGeometry>
        </mxCell>
      </root>
    </mxGraphModel>
  </diagram>
</mxfile>
